<?xml version="1.0" encoding="UTF-8"?>
<!DOCTYPE svg PUBLIC "-//W3C//DTD SVG 1.1//EN" "http://www.w3.org/Graphics/SVG/1.1/DTD/svg11.dtd">
<!-- Creator: CorelDRAW 2020 (64-Bit) -->
<svg xmlns="http://www.w3.org/2000/svg" xml:space="preserve" width="8.26772in" height="11.6929in" version="1.1" style="shape-rendering:geometricPrecision; text-rendering:geometricPrecision; image-rendering:optimizeQuality; fill-rule:evenodd; clip-rule:evenodd"
viewBox="0 0 8267.72 11692.91"
 xmlns:xlink="http://www.w3.org/1999/xlink"
 xmlns:xodm="http://www.corel.com/coreldraw/odm/2003">
 <defs>
   <clipPath id="id0">
    <path d="M3882.55 6202.92l-38.2 -168.47 -71.02 -46.22 -12.48 -114.41 -69.04 -126.86 -20.68 -127.91 6.67 -336.67c136.56,-333.74 143.1,-419.6 455.45,-610l165.03 -46.14c556.11,39.15 548.76,183.54 753.85,648.97l20.82 296.22 -33.22 84.06 -33.6 184.56 -34.08 127.3 -72.63 13.29 -61.06 178.93 -50.28 122.3 96.75 141.93 529.2 282.58 441.81 230.38 279.81 172.63 41.93 22.01 41.93 1909.97 -3437.29 0c0,-1296.59 -100.31,-1867.79 175.19,-2190.93 153,-179.47 340.87,-282.44 919.78,-390.67 86.59,-16.19 5.39,-193.84 5.39,-256.86z"/>
   </clipPath>
 </defs>
 <g id="Layer_x0020_1">
  <metadata id="CorelCorpID_0Corel-Layer"/>
  <g style="clip-path:url(#id0)">
   <image x="2782.2" y="4588.33" width="3437.29" height="4453.05" xlink:href="hg_Images\hg_ImgID1.png"/>
  </g>
 </g>
</svg>
